<svg width="95" height="95" viewBox="0 0 95 95" fill="none" xmlns="http://www.w3.org/2000/svg">
<path d="M47.3548 64.4553C45.1753 64.4553 43.4085 62.6885 43.4085 60.5091V51.3012H34.2007C32.0212 51.3012 30.2544 49.5344 30.2544 47.3549C30.2544 45.1755 32.0212 43.4087 34.2007 43.4087H43.4085V34.2008C43.4085 32.0214 45.1753 30.2546 47.3548 30.2546C49.5342 30.2546 51.301 32.0214 51.301 34.2008V43.4087H60.5089C62.6883 43.4087 64.4551 45.1755 64.4551 47.3549C64.4551 49.5344 62.6883 51.3012 60.5089 51.3012H51.301V60.5091C51.301 62.6885 49.5342 64.4553 47.3548 64.4553Z" fill="#0A0A0A"/>
<path fill-rule="evenodd" clip-rule="evenodd" d="M7.89258 47.3549C7.89258 25.5605 25.5605 7.89258 47.3549 7.89258C69.1494 7.89258 86.8173 25.5605 86.8173 47.3549C86.8173 69.1494 69.1494 86.8173 47.3549 86.8173C25.5605 86.8173 7.89258 69.1494 7.89258 47.3549ZM47.3549 15.7851C29.9194 15.7851 15.7851 29.9194 15.7851 47.3549C15.7851 64.7905 29.9194 78.9248 47.3549 78.9248C64.7905 78.9248 78.9248 64.7905 78.9248 47.3549C78.9248 29.9194 64.7905 15.7851 47.3549 15.7851Z" fill="#0A0A0A"/>
</svg>
