<?xml version="1.0" encoding="UTF-8"?>
<svg id="Calque_1" data-name="Calque 1" xmlns="http://www.w3.org/2000/svg" viewBox="0 0 1700 1070">
  <defs>
    <style>
      .cls-1 {
        fill: #fff;
      }

      .cls-2 {
        fill: #0a0a0a;
      }

      .cls-3 {
        fill: #874139;
      }
    </style>
  </defs>
  <rect class="cls-2" x="-61.13" y="-27.91" width="1822.25" height="1125.82"/>
  <g>
    <g>
      <g>
        <g>
          <path class="cls-1" d="M839.93,555.78c-3.75-3.53-8.78-5.63-15.05-6.32,4.37-1.69,7.73-4,10.11-6.95,2.37-2.95,3.56-6.26,3.56-9.93,0-4.75-1.79-8.43-5.4-11.04-3.6-2.6-8.82-3.91-15.63-3.91-1.54,0-8.58.04-9.78.11-1.19.09-2.2.16-3.04.24-2.39.23-4.63.34-6.78.34s-4.8-.08-8.16-.24l-5.99-.11c-.15,0-.23.23-.23.68s.08.71.23.71c2.46,0,4.27.2,5.46.63,1.2.42,2.04,1.19,2.53,2.3.5,1.11.75,2.76.75,4.99v53.21c0,2.3-.25,3.99-.75,5.05-.49,1.08-1.35,1.82-2.58,2.24-1.22.42-3.07.64-5.52.64-.23,0-.34.23-.34.69s.12.7.34.7c2.53,0,4.53-.04,5.99-.12l8.28-.11c.77,0,1.51,0,2.21.02,1.26-2,2.51-4.03,3.73-6.05-.22-.83-.32-1.85-.32-3.06v-27.92c1.83-.16,9.83-.24,12.6-.24,5.82,0,10.25,1.76,13.27,5.28,3.02,3.54,4.54,8.21,4.54,14.02s-1.44,9.76-4.32,12.39c-.06.06-.13.12-.19.18-.4.36-.83.69-1.29.99-.53.34-1.09.66-1.68.93-.2.09-.41.18-.62.25-.1.05-.19.08-.28.12-2.02.74-4.39,1.13-7.13,1.13-.95,0-3.34-.2-5.83-.42.19.98.4,1.94.65,2.9,3.12.09,6.02.16,7.02.16,1.98,0,3.88-.16,5.7-.49h0c.5-.09,1-.19,1.5-.31.4-.09.79-.2,1.19-.29.4-.11.8-.24,1.2-.37.29-.1.59-.21.88-.31.83-.29,1.65-.64,2.45-1.03,3.87-1.87,6.9-4.44,9.09-7.71,2.17-3.25,3.27-6.87,3.27-10.84,0-5.22-1.88-9.59-5.63-13.11ZM810.19,549.46l-6.64-.12v-21.83c0-3.07.44-5.08,1.32-6.09.88-1,8.24-1.49,10.69-1.49,3.99,0,7.02,1.19,9.09,3.56,2.07,2.38,3.11,5.75,3.11,10.12,0,4.67-1.16,8.48-3.46,11.43-2.29,2.95-9.58,4.43-14.11,4.43ZM807.33,586.7c-.24-.03-.48-.07-.71-.13-.66,1.07-1.31,2.14-1.97,3.19,1.2.07,3.04.14,5.06.21-.23-1-.46-2.04-.66-3.12-.63-.06-1.21-.11-1.73-.16Z"/>
          <path class="cls-1" d="M908.35,569.73c-.39-.03-.61.06-.69.29-1.23,5.13-10.38,16.78-23.85,16.78,0,0-12.54-.16-13.53-.46-1-.3-1.67-.92-2.02-1.84-.34-.92-.52-2.41-.52-4.48v-52.63c0-2.3.21-4,.63-5.11.42-1.11,1.23-1.87,2.41-2.3,1.19-.42,3.04-.63,5.58-.63.23,0,.34-.23.34-.69s-.12-.69-.34-.69l-5.75.12c-3.37.15-6.21.23-8.51.23-2.14,0-4.9-.08-8.27-.23l-5.86-.12c-.16,0-.23.23-.23.69s.07.69.23.69c2.53,0,4.4.21,5.63.63,1.23.42,2.05,1.17,2.47,2.24.42,1.07.63,2.76.63,5.06v53.2c0,2.3-.21,4.01-.63,5.11-.42,1.11-1.22,1.86-2.41,2.24-1.19.38-3.08.58-5.69.58-.16,0-.23.23-.23.69s.07.69.23.69h52.3c.49,0,.93-.29,1.11-.74,1.82-4.36,6.08-13.2,8.17-18.91,0-.23-.83-.36-1.22-.41Z"/>
          <path class="cls-1" d="M984.37,588.41c-2.05,0-3.98-1.01-5.77-3.04-1.79-2.01-4.03-5.78-6.69-11.26l-3.68-7.62-1.37-2.85h0l-22.31-46.04c-.07-.23-.37-.33-.9-.33s-.89.11-1.04.33l-23.95,55.36c-.08.17-.15.35-.24.54,0,0,0,.03-.02.04h0c-.61,1.36-1.72,3.88-2.98,6.68-1.25,2.81-2.66,5.94-3.84,8.48-.17.35.12.75.51.73,1.97-.08,3.75-.13,5.33-.13,2.14,0,4.63.09,7.54.22,2.59.15,4.56.23,5.94.23.39,0,.57-.23.57-.68s-.18-.69-.57-.69c-3.43,0-6.09-.7-7.99-2.06-1.91-1.38-2.87-3.4-2.87-6.06,0-1.83.5-3.89,1.5-6.17l1.19-2.71v-.02c2.53-4.11,5.42-7.64,9.83-9.33,3.89-1.49,8.76-1.44,14.88.14l7.13,1.85,7.53,15.33c1.31,2.74,1.95,4.68,1.95,5.83s-.5,1.96-1.54,2.46c-1.03.5-2.65.74-4.87.74-.31,0-.45.23-.45.69s.14.68.45.68c1.45,0,3.48-.08,6.06-.23,2.6-.14,4.85-.22,6.75-.22,1.45,0,3.77.09,6.97.22,3.21.15,5.53.23,6.97.23.39,0,.57-.23.57-.68s-.18-.69-.57-.69ZM948.08,559.61c-6.68-1.72-12.08-1.74-16.52-.05-1.83.71-3.43,1.66-4.86,2.81l1.53-3.47,11.27-26.64,12.49,26.64,1.05,2.14c-1.62-.5-3.28-1.01-4.97-1.43Z"/>
        </g>
        <g>
          <path class="cls-3" d="M760.1,618.31c-1.09.31-2.1-.63-1.86-1.73.32-1.5.31-3.29-.02-5.41-.81-6.48-4.14-11.98-6.27-17.96-.4-1.12-.75-2.25-1.05-3.41-.18-.74-.33-1.5-.46-2.26-.04-.24-.07-.47-.12-.72h5.66c.56,0,1.08-.03,1.61-.05,1.37-.08,2.66-.25,3.88-.52.54,1.18,1.1,2.36,1.66,3.55.54,1.14,1.07,2.27,1.57,3.41,3.73,8.35,7.45,21.68-4.59,25.11Z"/>
          <path class="cls-3" d="M950.2,644.31c-.83,1.09-2.33,1.62-3.61,2.05-3.03.94-5.92,2.07-9.17,3.25-4.84,1.65-9.47,4.19-14.13,6.28-.36.07,0-.46.55-1.14,1.27-1.82,3.83-3.36,3.99-5.75-.41-2.19-3.25-2.6-4.82-4.03-1.81-1.32-2.41-3.67-1.51-5.72,2.91-8.36,24.43-17.59,21.14-5.97-2.32,3.92-8.46,2.63-11.58,5.46-1.3.99-1.26,2.93.13,3.88,5.57,3.81,23.11-6.34,19.11,1.57l-.09.12Z"/>
          <path class="cls-3" d="M883.75,640.07c-.08,3.26-4.93,7.13-8.31,8.69-4.27,1.63-11.35-2.05-13.54-3.78-1.42-1.11-.87-2.77.47-4.56,3.53-4.69,7.85-7.77,12.58-5.85,3.08.99,8.29,2.32,8.81,5.4v.11Z"/>
          <path class="cls-3" d="M931.27,622.57c0-.3.56-.69.84-.96,4.34-3.71,6.59-8.7,6.43-14.27-.34-6.12-2.4-9.43-3.19-15.35-2.22-12.07-.96-23.55,5.69-25,1.2-.45,2.02.49,2.22,1.72,1.25,11.73,7.7,21.89,7.81,34,.59,8.93-1.69,15.84-11.44,18.53-2.2.71-4.85,1.23-7.42,1.48-.29.05-.8.05-.93-.1l-.02-.05Z"/>
          <path class="cls-3" d="M749.97,583.4c-.2-4.05.45-8.24,3.23-11.14.93-.99,3.41-2.64,3.86-.47.17,3.66,1.41,7.44,3.01,11.26-.83.15-1.71.25-2.63.3-.48.03-.95.05-1.44.05h-6.02Z"/>
          <path class="cls-3" d="M901.09,608.27c-.25,5.63-9.72,9.74-14.65,12.12-12.54,6.03-45.91,12.15-58.9,10.73-3.88-.43-7.3-1.12-9.97-3.72-4.75-4.62-5-12.43-3.52-20.26.68-3.58,3.89-20.17-1.56-11.01-2.08,4.03-3.54,8.41-5.89,12.23-13.09,19.77-37.02,24.45-63.28,24.94-8.6.17-36.04-2.19-20.06-6.49,16.01-4.3,32.33-2.91,47.89-9.4,9.6-3.95,20.03-8.36,26.66-17.36,2.36-3.24,4.62-6.73,6.83-10.28.66-1.06,1.31-2.13,1.97-3.19,2.16-3.57,4.27-7.13,6.37-10.55,4.53-7.36,9.3-10.53,11.76.33.63,3.1.93,6.5,1.1,10.01.06,1.12.06,2.25.13,3.39.49,8.39-2.86,18.31-.69,22.82,5.59,16.1,52.66,2.41,63.74-2.31,2.53-1.08,12.06-5.7,12.05-2.1v.1Z"/>
        </g>
        <path class="cls-1" d="M776.91,572.1c-.78,5.82-1.15,11.15-1.15,15.97,0,.61-.12,1.05-.35,1.32-.23.27-.68.4-1.37.4h-53.64c-.22,0-.34-.22-.34-.69s.12-.68.34-.68c2.61,0,4.51-.2,5.7-.57,1.18-.39,1.98-1.13,2.4-2.25s.65-2.82.65-5.12v-23.27c-3.06-.37-6.05-1.17-8.8-2.6-2.1-1.14-4.05-2.61-5.29-4.85l.85-.6c3.71,3.39,8.37,5.11,13.24,5.63v-27.52c0-2.31-.23-3.99-.65-5.06-.42-1.08-1.24-1.82-2.46-2.24-1.23-.42-3.11-.63-5.64-.63-.22,0-.34-.24-.34-.7s.12-.68.34-.68h51.56c.78,0,1.15.34,1.15,1.03l.23,14.94c0,.15-.21.26-.63.35-.42.07-.67,0-.75-.24-1.84-8.73-7.15-13.09-15.97-13.09h-6.4c-2.78,0-6.66.49-7.81,1.49-1.15,1-1.72,2.67-1.72,5.05v26.67c.2-.04.42-.09.62-.14,4.34-.93,8.82-2.29,13.41-3.07.97-.19,1.94-.36,2.92-.51,2.5-.42,5.05-.59,7.49-1.23,1.55-.4,2.84-2.23,2.96-2.53h.53v9.53h-.51c-.1-.27-.95-3.12-6.2-3.17-1.45,0-2.86.03-4.27.15-5.31.49-10.37,2.55-15.81,3.6-.37.06-.77.11-1.15.16v23.06c0,2.53.48,4.28,1.44,5.28.95,1,2.66,1.5,5.11,1.5h9.39c.55,0,1.07-.03,1.6-.05,1.37-.08,2.67-.25,3.88-.51,2.48-.54,4.66-1.46,6.55-2.79,3.54-2.48,6.04-6.35,7.49-11.6,0-.14.16-.23.46-.23.24,0,.44.05.65.18.18.12.28.21.28.29Z"/>
      </g>
      <g>
        <path class="cls-1" d="M732.03,664.06c.63.31.94.73.94,1.26,0,.41-.14.72-.41.96-.27.23-.59.35-.96.35-.41,0-.71-.09-.93-.27-.21-.18-.41-.47-.59-.85-.24-.43-.49-.74-.74-.96-.25-.21-.61-.32-1.08-.32-1.01,0-1.81.66-2.4,1.97-.59,1.32-.88,3.35-.88,6.11v1.88c1.05-.02,2.23-.11,3.52-.27.06,0,.11.07.15.21.04.14.06.31.06.52,0,.18-.03.36-.09.55-.06.18-.13.26-.21.24-1.24-.28-2.38-.44-3.43-.46v8.2c0,.63.07,1.08.2,1.37.13.28.39.48.77.58.38.1.99.15,1.82.15.08,0,.12.06.12.18s-.04.18-.12.18l-2.04-.03c-.45-.02-1.12-.03-2.04-.03l-1.79.03c-.3.02-.74.03-1.31.03-.08,0-.12-.06-.12-.18s.04-.18.12-.18c.55,0,.95-.06,1.22-.17.26-.11.44-.31.55-.59.1-.28.15-.73.15-1.34v-6.84c0-.67-.13-1.09-.4-1.28-.26-.18-.81-.27-1.64-.27-.06,0-.09-.09-.09-.27,0-.16.03-.24.09-.24.75,0,1.26-.1,1.53-.29s.42-.54.44-1.05c.1-3.3.72-5.69,1.85-7.15,1.13-1.47,2.83-2.2,5.1-2.2,1.11,0,1.98.16,2.61.47Z"/>
        <path class="cls-1" d="M740.39,674.07c.43.3.64.67.64,1.09,0,.39-.12.7-.35.94s-.55.37-.96.37c-.26,0-.48-.06-.65-.17-.17-.11-.35-.27-.53-.47-.18-.18-.34-.32-.49-.41-.14-.09-.31-.14-.52-.14-.22,0-.46.09-.71.26-.25.17-.64.53-1.17,1.08v6.56c0,.57.08,1,.24,1.29.16.29.44.5.82.62.38.12.95.18,1.7.18.08,0,.12.06.12.18s-.04.18-.12.18c-.67,0-1.21-.01-1.61-.03l-2.4-.03-1.76.03c-.28.02-.68.03-1.18.03-.06,0-.09-.06-.09-.18s.03-.18.09-.18c.69,0,1.14-.14,1.37-.43.22-.28.33-.84.33-1.67v-5.8c0-.65-.08-1.12-.23-1.43-.15-.3-.4-.46-.74-.46-.3,0-.81.15-1.52.46h-.03c-.08,0-.14-.05-.18-.15-.04-.1-.03-.16.03-.18l3.98-1.94c.12-.04.19-.06.21-.06.2,0,.4.22.61.65.2.44.32,1.01.36,1.72.79-.89,1.45-1.51,1.97-1.85.53-.34,1-.52,1.43-.52.47,0,.91.15,1.34.46Z"/>
        <path class="cls-1" d="M746.34,685.17c-.93-.58-1.65-1.36-2.16-2.34-.51-.98-.76-2.05-.76-3.2,0-1.32.33-2.43.99-3.36.66-.92,1.5-1.61,2.52-2.07,1.02-.46,2.07-.68,3.14-.68,1.23,0,2.31.29,3.24.88.92.59,1.62,1.36,2.11,2.32s.73,1.99.73,3.08c0,1.22-.3,2.3-.9,3.25-.6.95-1.4,1.69-2.41,2.2-1.01.52-2.11.77-3.28.77s-2.29-.29-3.22-.87ZM752.52,684.25c.48-.79.71-1.94.71-3.46,0-1.36-.19-2.54-.56-3.55-.37-1.01-.88-1.78-1.52-2.31-.64-.53-1.33-.79-2.08-.79-.91,0-1.6.38-2.07,1.12-.47.75-.7,1.85-.7,3.31,0,1.32.18,2.5.53,3.54.35,1.04.85,1.86,1.49,2.45.64.59,1.35.88,2.14.88.89,0,1.57-.39,2.05-1.18Z"/>
        <path class="cls-1" d="M781.4,685.46c0,.12-.04.18-.12.18-.51,0-.91-.01-1.22-.03l-1.73-.03-1.73.03c-.3.02-.71.03-1.21.03-.06,0-.09-.06-.09-.18s.03-.18.09-.18c.67,0,1.12-.15,1.37-.44.24-.29.36-.85.36-1.65v-4.53c0-1.13-.2-1.97-.59-2.52-.4-.55-1-.82-1.81-.82-.55,0-1.09.13-1.64.39-.55.26-1.02.62-1.43,1.06v6.41c0,.83.12,1.39.35,1.67.23.28.69.43,1.38.43.06,0,.09.06.09.18s-.03.18-.09.18c-.51,0-.91-.01-1.21-.03l-1.76-.03-1.73.03c-.3.02-.71.03-1.22.03-.06,0-.09-.06-.09-.18s.03-.18.09-.18c.69,0,1.15-.14,1.38-.43.23-.28.35-.84.35-1.67v-4.53c0-1.13-.2-1.97-.59-2.52-.4-.55-1-.82-1.81-.82-.51,0-1.02.12-1.55.36-.53.24-.99.57-1.4.97v6.53c0,.83.11,1.39.33,1.67.22.28.68.43,1.37.43.06,0,.09.06.09.18s-.03.18-.09.18c-.51,0-.9-.01-1.18-.03l-1.76-.03-1.76.03c-.28.02-.68.03-1.18.03-.06,0-.09-.06-.09-.18s.03-.18.09-.18c.69,0,1.14-.14,1.37-.43.22-.28.33-.84.33-1.67v-5.8c0-.65-.08-1.12-.23-1.43-.15-.3-.4-.46-.74-.46-.3,0-.81.15-1.52.46h-.03c-.08,0-.14-.05-.18-.15-.04-.1-.03-.16.03-.18l3.98-1.94c.12-.04.19-.06.21-.06.2,0,.41.23.62.68s.33,1.05.35,1.78c1.36-1.66,2.83-2.49,4.43-2.49.93,0,1.68.23,2.25.68.57.46.92,1.12,1.06,1.99,1.44-1.78,2.98-2.67,4.62-2.67,1.07,0,1.9.31,2.48.93.58.62.87,1.56.87,2.81v5.86c0,.83.12,1.39.35,1.67.23.28.69.43,1.38.43.08,0,.12.06.12.18Z"/>
        <path class="cls-1" d="M801.11,683.7c.06,0,.12.04.17.12.05.08.05.14-.02.18-.75.71-1.46,1.22-2.13,1.53-.67.31-1.38.47-2.13.47-.87,0-1.6-.21-2.2-.62s-.9-1.11-.9-2.08v-6.86c0-.67-.11-1.11-.32-1.34s-.62-.33-1.23-.33c-.02,0-.05-.03-.08-.08-.03-.05-.05-.11-.05-.17s.01-.12.05-.17.06-.08.08-.08c1.9-.08,3.1-.9,3.58-2.46.04-.08.13-.12.26-.12s.2.04.2.12v2.4c.95-.02,2.3-.12,4.04-.3.04,0,.09.08.14.23.05.15.08.32.08.5s-.04.36-.11.55c-.07.18-.15.26-.23.24-1.13-.26-2.44-.43-3.92-.49v7.35c0,.79.2,1.37.59,1.75.4.38.95.56,1.66.56.85,0,1.65-.29,2.4-.88l.06-.03Z"/>
        <path class="cls-1" d="M817.73,685.46c0,.12-.04.18-.12.18-.51,0-.91-.01-1.22-.03l-1.73-.03-1.73.03c-.3.02-.71.03-1.22.03-.06,0-.09-.06-.09-.18s.03-.18.09-.18c.67,0,1.12-.15,1.37-.44.24-.29.36-.85.36-1.65v-4.53c0-2.23-.87-3.34-2.61-3.34-.55,0-1.1.13-1.66.38-.56.25-1.05.59-1.47,1.02v6.47c0,.83.12,1.39.35,1.67.23.28.69.43,1.38.43.08,0,.12.06.12.18s-.04.18-.12.18c-.51,0-.91-.01-1.22-.03l-1.73-.03-1.73.03c-.3.02-.71.03-1.21.03-.06,0-.09-.06-.09-.18s.03-.18.09-.18c.67,0,1.12-.15,1.37-.44.24-.29.36-.85.36-1.65v-15.52c0-.71-.07-1.22-.21-1.53-.14-.31-.38-.47-.7-.47-.3,0-.72.12-1.25.36h-.03c-.06,0-.12-.05-.17-.17-.05-.11-.05-.18.02-.2l4.22-2.01.15-.03c.08,0,.17.04.26.12.09.08.14.15.14.21v12.15c1.46-1.68,3.01-2.52,4.65-2.52,1.11,0,1.98.33,2.6,1,.62.67.93,1.58.93,2.73v5.86c0,.83.12,1.39.35,1.67.23.28.69.43,1.38.43.08,0,.12.06.12.18Z"/>
        <path class="cls-1" d="M830.94,683.73s.09.04.14.12c.05.08.06.14.02.18-.75.69-1.5,1.19-2.25,1.5-.75.31-1.56.47-2.43.47-1.24,0-2.3-.27-3.2-.82s-1.59-1.27-2.07-2.16c-.48-.89-.71-1.85-.71-2.89,0-1.2.29-2.29.88-3.28.59-.99,1.39-1.78,2.41-2.35,1.02-.58,2.16-.87,3.42-.87s2.16.29,2.83.88c.67.59,1,1.46,1,2.61,0,.59-.12.88-.36.88l-7.41.03c-.02.18-.03.46-.03.82,0,1.78.41,3.2,1.23,4.24.82,1.04,1.99,1.56,3.51,1.56.57,0,1.04-.07,1.43-.2.38-.13.9-.37,1.55-.71l.06-.03ZM824.21,675.12c-.48.58-.79,1.37-.96,2.38l4.86-.09c-.04-2.11-.73-3.16-2.07-3.16-.75,0-1.36.29-1.84.87Z"/>
        <path class="cls-1" d="M847.95,666.19c-.75,1.35-1.12,3.39-1.12,6.12v1.88c1.05-.02,2.23-.11,3.52-.27.06,0,.11.08.15.23.04.15.06.32.06.5,0,.2-.04.4-.11.59-.07.19-.14.27-.2.23-1.13-.28-2.28-.46-3.43-.52v8.23c0,.63.07,1.08.2,1.37.13.28.39.48.77.58.38.1.99.15,1.82.15.08,0,.12.06.12.18s-.04.18-.12.18l-2.04-.03c-.45-.02-1.12-.03-2.04-.03l-1.79.03c-.3.02-.74.03-1.31.03-.08,0-.12-.06-.12-.18s.04-.18.12-.18c.55,0,.95-.06,1.22-.17.26-.11.44-.31.55-.59.1-.28.15-.73.15-1.34v-6.84c0-.67-.13-1.09-.4-1.28-.26-.18-.81-.27-1.64-.27-.06,0-.09-.09-.09-.27,0-.16.03-.24.09-.24.75,0,1.26-.1,1.53-.29s.42-.54.44-1.05c.12-3.26.82-5.63,2.08-7.12,1.27-1.49,3.08-2.23,5.45-2.23,1.28,0,2.3.22,3.07.65.77.44,1.15.99,1.15,1.66,0,.36-.11.65-.33.87-.22.21-.55.32-.97.32-.38,0-.69-.11-.93-.33-.23-.22-.48-.55-.74-.97-.28-.53-.58-.93-.9-1.2-.31-.27-.76-.41-1.35-.41-1.18,0-2.14.67-2.89,2.02ZM858.13,685.46c0,.12-.04.18-.12.18-.51,0-.91-.01-1.21-.03l-1.73-.03-1.73.03c-.3.02-.71.03-1.21.03-.06,0-.09-.06-.09-.18s.03-.18.09-.18c.67,0,1.12-.15,1.37-.44.24-.29.36-.85.36-1.65v-5.53c0-.71-.07-1.22-.2-1.53-.13-.31-.37-.47-.71-.47-.26,0-.68.13-1.25.4h-.03c-.08,0-.14-.05-.18-.15-.04-.1-.03-.17.03-.21l4.37-2.04s.05-.03.09-.03c.08,0,.17.05.26.14.09.09.14.17.14.23,0,.24-.01.46-.03.64-.04.85-.06,1.85-.06,3.01v5.56c0,.83.12,1.39.35,1.67.23.28.69.43,1.38.43.08,0,.12.06.12.18Z"/>
        <path class="cls-1" d="M870.25,674.07c.43.3.64.67.64,1.09,0,.39-.12.7-.35.94s-.55.37-.96.37c-.26,0-.48-.06-.65-.17-.17-.11-.35-.27-.53-.47-.18-.18-.34-.32-.49-.41-.14-.09-.31-.14-.52-.14-.22,0-.46.09-.71.26-.25.17-.64.53-1.17,1.08v6.56c0,.57.08,1,.24,1.29.16.29.44.5.82.62.38.12.95.18,1.7.18.08,0,.12.06.12.18s-.04.18-.12.18c-.67,0-1.21-.01-1.61-.03l-2.4-.03-1.76.03c-.28.02-.68.03-1.18.03-.06,0-.09-.06-.09-.18s.03-.18.09-.18c.69,0,1.14-.14,1.37-.43.22-.28.33-.84.33-1.67v-5.8c0-.65-.08-1.12-.23-1.43-.15-.3-.4-.46-.74-.46-.3,0-.81.15-1.52.46h-.03c-.08,0-.14-.05-.18-.15-.04-.1-.03-.16.03-.18l3.98-1.94c.12-.04.19-.06.21-.06.2,0,.4.22.61.65.2.44.32,1.01.36,1.72.79-.89,1.45-1.51,1.97-1.85.53-.34,1-.52,1.43-.52.47,0,.91.15,1.34.46Z"/>
        <path class="cls-1" d="M876.7,677.08c.44.43,1.07.87,1.9,1.34.73.41,1.29.74,1.69,1,.39.26.74.62,1.03,1.06.29.45.44.98.44,1.61,0,.69-.17,1.33-.52,1.91-.34.59-.86,1.06-1.53,1.43-.68.36-1.48.55-2.41.55-1.11,0-2.14-.28-3.07-.85-.12-.12-.18-.24-.18-.36l-.06-2.79c0-.06.06-.1.17-.11.11,0,.18,0,.2.05.34,1.01.87,1.84,1.56,2.49.7.65,1.44.97,2.23.97.51,0,.9-.13,1.18-.39.28-.26.43-.66.43-1.18,0-.77-.22-1.38-.67-1.84s-1.09-.91-1.94-1.35c-.69-.37-1.23-.67-1.61-.93-.38-.25-.71-.6-.99-1.03-.27-.44-.41-.98-.41-1.63,0-1.15.42-2.01,1.26-2.58.84-.57,1.86-.85,3.05-.85.79,0,1.6.15,2.43.46.18.08.27.19.27.33,0,.47-.01.83-.03,1.09l-.03,1.46c0,.06-.06.09-.18.09s-.18-.03-.18-.09c0-.4-.16-.82-.49-1.26-.32-.44-.74-.79-1.25-1.08-.51-.28-1.02-.43-1.55-.43-.93,0-1.4.45-1.4,1.34,0,.63.22,1.15.65,1.58Z"/>
        <path class="cls-1" d="M893.82,683.7c.06,0,.12.04.17.12.05.08.05.14-.02.18-.75.71-1.46,1.22-2.13,1.53-.67.31-1.38.47-2.13.47-.87,0-1.6-.21-2.2-.62s-.9-1.11-.9-2.08v-6.86c0-.67-.11-1.11-.32-1.34s-.62-.33-1.23-.33c-.02,0-.05-.03-.08-.08-.03-.05-.05-.11-.05-.17s.01-.12.05-.17.06-.08.08-.08c1.9-.08,3.1-.9,3.58-2.46.04-.08.13-.12.26-.12s.2.04.2.12v2.4c.95-.02,2.3-.12,4.04-.3.04,0,.09.08.14.23.05.15.08.32.08.5s-.04.36-.11.55c-.07.18-.15.26-.23.24-1.13-.26-2.44-.43-3.92-.49v7.35c0,.79.2,1.37.59,1.75.4.38.95.56,1.66.56.85,0,1.65-.29,2.4-.88l.06-.03Z"/>
        <path class="cls-1" d="M914.32,684.77c.73.1,1.36.38,1.9.85.54.47.8,1.2.8,2.19,0,1.11-.35,2.16-1.06,3.14s-1.65,1.77-2.82,2.35c-1.18.59-2.43.88-3.77.88s-2.53-.31-3.39-.94c-.86-.63-1.29-1.45-1.29-2.46,0-1.44,1.03-2.85,3.1-4.22-1.5-.28-2.25-1-2.25-2.16,0-.63.18-1.2.53-1.73.35-.53.9-1.04,1.63-1.55-.75-.34-1.33-.84-1.75-1.49-.42-.65-.62-1.34-.62-2.07,0-.79.24-1.48.73-2.07.49-.59,1.12-1.03,1.9-1.34.78-.3,1.61-.46,2.51-.46,1.3,0,2.37.32,3.22.97.55-.34,1.08-.6,1.61-.77.53-.17,1.09-.26,1.7-.26.14,0,.21.26.21.79,0,.28-.04.58-.11.88-.07.3-.15.43-.23.36-.85-.32-1.58-.49-2.19-.49-.18,0-.31.01-.39.03.59.65.88,1.42.88,2.31,0,.77-.24,1.47-.73,2.1-.49.63-1.12,1.11-1.91,1.46-.79.34-1.63.52-2.52.52-.67,0-1.28-.09-1.82-.27-.45.43-.67.93-.67,1.52,0,.73.3,1.2.9,1.4.6.2,1.62.31,3.08.33,1.15.02,2.1.08,2.82.18ZM913.79,692.22c.7-.68,1.05-1.59,1.05-2.75,0-.85-.19-1.47-.56-1.85-.38-.38-.87-.63-1.49-.73-.62-.1-1.49-.15-2.63-.15-.57,0-1.11-.03-1.64-.09-.95.69-1.43,1.6-1.43,2.73,0,1.22.37,2.16,1.11,2.84s1.68,1.02,2.81,1.02,2.08-.34,2.78-1.02ZM907.91,676.72c0,.85.14,1.61.41,2.28.27.67.63,1.18,1.06,1.55.44.37.89.55,1.35.55.53,0,.96-.23,1.31-.68.34-.46.52-1.15.52-2.08,0-.85-.15-1.58-.44-2.2-.29-.62-.67-1.08-1.12-1.4-.46-.31-.94-.47-1.44-.47-1.09,0-1.64.82-1.64,2.46Z"/>
        <path class="cls-1" d="M928.9,674.07c.43.3.64.67.64,1.09,0,.39-.12.7-.35.94s-.55.37-.96.37c-.26,0-.48-.06-.65-.17-.17-.11-.35-.27-.53-.47-.18-.18-.34-.32-.49-.41-.14-.09-.31-.14-.52-.14-.22,0-.46.09-.71.26-.25.17-.64.53-1.17,1.08v6.56c0,.57.08,1,.24,1.29.16.29.44.5.82.62.38.12.95.18,1.7.18.08,0,.12.06.12.18s-.04.18-.12.18c-.67,0-1.21-.01-1.61-.03l-2.4-.03-1.76.03c-.28.02-.68.03-1.18.03-.06,0-.09-.06-.09-.18s.03-.18.09-.18c.69,0,1.14-.14,1.37-.43.22-.28.33-.84.33-1.67v-5.8c0-.65-.08-1.12-.23-1.43-.15-.3-.4-.46-.74-.46-.3,0-.81.15-1.52.46h-.03c-.08,0-.14-.05-.18-.15-.04-.1-.03-.16.03-.18l3.98-1.94c.12-.04.19-.06.21-.06.2,0,.4.22.61.65.2.44.32,1.01.36,1.72.79-.89,1.45-1.51,1.97-1.85.53-.34,1-.52,1.43-.52.47,0,.91.15,1.34.46Z"/>
        <path class="cls-1" d="M934.86,685.17c-.93-.58-1.65-1.36-2.16-2.34-.51-.98-.76-2.05-.76-3.2,0-1.32.33-2.43.99-3.36.66-.92,1.5-1.61,2.52-2.07,1.02-.46,2.07-.68,3.14-.68,1.23,0,2.31.29,3.24.88.92.59,1.62,1.36,2.11,2.32.49.96.73,1.99.73,3.08,0,1.22-.3,2.3-.9,3.25-.6.95-1.4,1.69-2.41,2.2-1.01.52-2.11.77-3.28.77s-2.29-.29-3.22-.87ZM941.04,684.25c.48-.79.71-1.94.71-3.46,0-1.36-.19-2.54-.56-3.55-.37-1.01-.88-1.78-1.52-2.31-.64-.53-1.33-.79-2.08-.79-.91,0-1.6.38-2.07,1.12-.47.75-.7,1.85-.7,3.31,0,1.32.18,2.5.53,3.54.35,1.04.85,1.86,1.49,2.45.64.59,1.35.88,2.14.88.89,0,1.57-.39,2.05-1.18Z"/>
        <path class="cls-1" d="M960.53,674.1c0,.12-.02.18-.06.18-.57,0-1.06.2-1.47.61s-.82,1.05-1.2,1.94l-3.77,8.81c-.04.1-.14.15-.3.15-.18,0-.3-.05-.36-.15l-4.5-9.2c-.43-.89-.79-1.47-1.09-1.75-.3-.27-.68-.41-1.12-.41-.06,0-.09-.06-.09-.18s.03-.18.09-.18c.36,0,.66.01.88.03l1.76.03,2.25-.03c.32-.02.77-.03,1.34-.03.06,0,.09.06.09.18s-.03.18-.09.18c-1.2,0-1.79.23-1.79.7,0,.12.05.28.15.49l3.49,6.9,2.31-5.59c.14-.34.21-.68.21-1,0-.49-.18-.86-.53-1.11-.35-.25-.88-.38-1.56-.38-.04,0-.06-.06-.06-.18s.02-.18.06-.18c.55,0,.96.01,1.25.03l1.82.03,1.18-.03c.22-.02.58-.03,1.06-.03.04,0,.06.06.06.18Z"/>
        <path class="cls-1" d="M972.95,683.73s.09.04.14.12c.05.08.06.14.02.18-.75.69-1.5,1.19-2.25,1.5-.75.31-1.56.47-2.43.47-1.24,0-2.3-.27-3.2-.82s-1.59-1.27-2.07-2.16c-.48-.89-.71-1.85-.71-2.89,0-1.2.29-2.29.88-3.28.59-.99,1.39-1.78,2.41-2.35,1.02-.58,2.16-.87,3.42-.87s2.16.29,2.83.88c.67.59,1,1.46,1,2.61,0,.59-.12.88-.36.88l-7.41.03c-.02.18-.03.46-.03.82,0,1.78.41,3.2,1.23,4.24.82,1.04,1.99,1.56,3.51,1.56.57,0,1.04-.07,1.43-.2.38-.13.9-.37,1.55-.71l.06-.03ZM966.22,675.12c-.48.58-.79,1.37-.96,2.38l4.86-.09c-.04-2.11-.73-3.16-2.07-3.16-.75,0-1.36.29-1.84.87Z"/>
        <path class="cls-1" d="M979.31,677.08c.44.43,1.07.87,1.9,1.34.73.41,1.29.74,1.69,1,.39.26.74.62,1.03,1.06.29.45.44.98.44,1.61,0,.69-.17,1.33-.52,1.91-.34.59-.86,1.06-1.53,1.43-.68.36-1.48.55-2.41.55-1.11,0-2.14-.28-3.07-.85-.12-.12-.18-.24-.18-.36l-.06-2.79c0-.06.06-.1.17-.11.11,0,.18,0,.2.05.34,1.01.87,1.84,1.56,2.49.7.65,1.44.97,2.23.97.51,0,.9-.13,1.18-.39.28-.26.43-.66.43-1.18,0-.77-.22-1.38-.67-1.84-.45-.46-1.09-.91-1.94-1.35-.69-.37-1.23-.67-1.61-.93-.38-.25-.71-.6-.99-1.03-.27-.44-.41-.98-.41-1.63,0-1.15.42-2.01,1.26-2.58.84-.57,1.86-.85,3.05-.85.79,0,1.6.15,2.43.46.18.08.27.19.27.33,0,.47-.01.83-.03,1.09l-.03,1.46c0,.06-.06.09-.18.09s-.18-.03-.18-.09c0-.4-.16-.82-.49-1.26-.32-.44-.74-.79-1.25-1.08-.51-.28-1.02-.43-1.55-.43-.93,0-1.4.45-1.4,1.34,0,.63.22,1.15.65,1.58Z"/>
      </g>
    </g>
    <path class="cls-1" d="M925.53,375.89c-1.04,1.17-4.51,5.74-5.85,7.34-2.44,2.91-7.53,8-8.56,9.02-.73.49-1.81.28-2.78.31-9.29-.49-17.04-6.74-26.23-8.34-6.51-1.15-13.09.29-19.63.16-2.55-.04-5.1-.41-7.49-1.2-.66-.21-1.46-.17-.4.53,16.09,8.8,35.22,16.98,53.64,11.1.43-.12.77-.18.86-.09.08.18-.16.45-.33.63-3.26,3.42-6.71,6.62-10.26,9.74-5.42,5.36-14.67,4.6-20.9,1.1-1.79-1.22-3.06-3.03-4.48-4.65-3.59-4.14-8.88-7.02-14.36-7.12-3.94-.31-8.27,1.46-9.46,5.52-3.66,12.13,21.49,20.7,24.98,8.37.18-.58.5-2.03-.14-.61-3.83,8.98-15.26,4.87-21.18.4-6.14-4.09-3.37-13.29,4.14-12.84,6.23.06,11.97,3.64,15.55,8.5,1.06,1.34,2.18,2.68,3.55,3.71,4.21,2.79,9.8,3.49,14.66,2.61.49-.1,1.01-.23,1.46-.36.45-.12.68-.14.59.02-.05.09-.19.22-.39.39-6.47,5.23-13.32,10.19-20.36,14.52-2.73,1.36-4.8-2.21-7.11-3.21-11.47-7.16-25.29-7.51-38.37-8.02-5.24-.33-10.55-1.8-14.98-4.58,11.47,13.48,34.57,26.01,52.76,20.35-1.78,1.18-3.87,1.79-5.65,2.99-2.82,1.47-5.75,2.77-8.67,4.04-2.13.97-4.29,1.92-6.68,1.48-6.58-.57-11.05-5.52-16.96-8.33-1.98-.92-4.07-1.57-6.18-2.1-4.48-1.12-9.16-1.75-13.49-3.36-.18-.05-.49-.16-.62-.09-.14.07-.06.31.16.66,6.69,10.39,19.48,17.62,31.76,16.35-.04.05-.24.13-.52.23-5.4,1.63-11.11,4.15-16.74,4.71-5.07-.58-12.84-1.48-15.04-6.66-.34-1.29-.03-2.6-.44-3.9-.34-1.26-.95-2.45-1.66-3.55-2.48-3.57-5.7-6.99-10.18-7.99-4.86-1.12-10.39,2.86-9.71,8.07.56,8.03,14.29,15.7,20.19,9.11-3.13,2.26-7.78,2.14-11.11.01-3.68-2.39-7.54-5.69-7.25-10.51.25-3.3,3.53-5.47,6.67-5.46,5.04.09,9.42,3.93,11.57,8.33,1.19,2.11.31,4.51.79,6.73,1.83,4.73,7.59,6.08,12.48,6.43.88.06,2.13.02,1.97.15-.43.22-7.18,1.57-10.25,2.26-.58.13-1.15.32-1.72.51-9.32,3.19-18-3.53-27.18-4.5-9.89-1.14-19.99.2-29.64-2.54-.9-.17-.29.16.23.53,4.38,2.86,8.77,5.87,13.63,7.86,10.61,3.79,22.46,3.98,33.53,2.35,1.24-.25.71.15.05.57-7.78,5.19-14.28,13.76-15.61,23.11,6.98-3.94,13.55-9.7,18.57-16.12,2.77-3.56,5.37-7.7,9.32-10.02.69-.41,1.45-.69,2.23-.87,5.06-1.18,10.23-2.28,15.24-3.59-2.52,1.93-5.59,4.05-7.82,6.53-8.47,8.6-12.71,20.48-16.61,31.52,2.73-4.2,6.9-7.21,10.99-10.05,6.46-4.46,11.23-11.15,13.82-18.56,1.71-3.93,3.03-8.67,6.54-11.38,4.91-2.06,10.28-3.75,15.22-5.99.42-.19,1.2-.49.36.23-12.42,10.37-16.87,26.76-18.35,42.28-.27,2.14-.55,4.32-.84,6.43-.05.41-.02.67.16.64.43-.21,1.29-1.15,1.76-1.66,15.87-15.54,18.33-20.95,23.1-39.34,1.44-4.16,3.27-12.7,7.28-14.81,5.8-2.94,11.42-6.25,16.73-9.82.21-.14.38-.23.48-.26.12-.03.12.05.03.23-2.03,2.71-2.69,6.17-4.48,9-1.07,1.48-2.58,2.61-4.28,3.35-5.96,2.53-9.84,8.37-8.57,14.8,1.01,5.48,5.51,7.59,9.84,6.2,5.4-1.84,9.03-8.14,8.3-13.78-.32-2.82-2.64-6.31-5.5-6.47,2.95,1.82,4.48,4.75,4.15,8.3-.34,4.33-3.04,8.81-6.54,10.92-2.79,1.69-6.97.87-8.34-2.23-2.11-4.35-.51-9.99,2.87-13.19,2.7-2.52,6.78-3.17,8.95-6.33,2.6-3.65,2.59-8.58,5.68-12.02,7.77-6.29,15.86-12.32,22.76-19.64.66-.68.75-.67.17.14-8.24,11.37-15.18,24.56-14.98,38.97-.04,4.36.44,8.76,1.29,13.01.1.47.22.72.39.6,11.6-22.23,19.98-23.34,18.64-51.81.2-2.81.4-5.67,1.45-8.22l.07-.13c4.34-5.38,8.8-10.74,12.69-16.56.13-.19.25-.38.35-.54.2-.33.31-.57.29-.62,0-.02-.05,0-.12.07ZM897.19,395.79h-.16c-13.73-.24-28.22-5-39.91-10.99,8.61,1.63,17.65-.65,26.15,1.59,6.32,1.65,12,5.1,18.22,7.04.36.13.5.24-.04.25-7.27.02-14.52-1.37-21.47-3.41-.74-.15-.16.15.2.3,7.78,3.14,16.33,4.75,24.73,4.63-2.49.46-5.17.57-7.72.59ZM778.25,449.17c5.23,2.28,11.28,2.19,16.92,2.44.08,0,.24,0,.32,0,.29,0,.44.02.37.06-10.41,1.64-23.92,1.56-31.52-1.79l-.13-.06c-.65-.1-10.46-5.59-7.65-4.99,9.43,1.59,19.39.43,28.61,2.5,3.68.96,7.47,2.2,11.15,2.97-3.79.27-7.79.1-11.63-.13-2.02-.15-4.06-.48-5.98-1.02-.15-.02-.53-.14-.46,0ZM798.34,461.32l-.1.12c-4.31,5.27-9.07,10.41-14.85,14.06-.5.24-.42-.16-.29-.57,3-9.32,11.65-18.92,19.81-22.16-2.14,1.9-4.15,4.11-5.67,6.56-.07.14-.38.63-.18.58,2.55-2.88,5.37-5.66,8.7-7.72.14-.09.57-.37.61-.34-2.97,2.75-5.5,6.32-8.03,9.47ZM824.83,458.82c-2.58,5.84-6.81,10.8-11.79,14.75l-.12.1c-2.57,2.09-5.27,4.16-7.5,6.64-.05.05-.15.16-.2.21-.15.15-.24.2-.25.13,4.98-12.96,12.37-26.19,23.74-34.27-3.68,4.22-7.24,9.28-9.26,14.58.12.04.39-.45.5-.62,2.62-4.31,5.54-8.99,9.27-12.26-1.62,3.47-2.93,7.19-4.39,10.75ZM824.07,432.67c-.12-.05-.18-.04-.16,0,1.77,1.65,4.15,2.83,6.41,3.86,2.25,1.11,4.94,1.67,7.17,2.48-8.43.72-17.09-2.72-23.83-7.75l-.13-.1c-.62-.28-8.39-7.32-5.71-6.42,7.28,2.22,15.19,3.63,21.6,7.86,1.54.96,3.1,1.93,4.69,2.82,1.37.82,3.07,1.49,4.41,2.13-5.05-.62-10.01-2.41-14.45-4.88ZM857.85,435.74c-1.52,3.22-2.57,6.71-3.53,10.13l-.04.15c-5.23,20.72-7.14,24.49-21.98,39.79-.43.45-.96.97-.76-.2.67-4.37,1.4-8.74,2.32-13.05,3.03-14.22,8.68-28.31,20.49-36.8.96-.47,1.32-.5.54.44-5.57,7.15-8.89,15.95-11.54,24.57-.16.72.15.14.3-.21,3.75-8.98,7.52-18.51,14.38-25.48.14.06-.11.47-.17.65ZM868.46,424.79c-8.1-1.12-16.28-2.04-24.29-3.79-.17-.02-.63-.16-.63-.03.04.05.26.16.56.27,7.37,2.3,14.55,3.41,22.31,4.77.24.04.93.16.81.35-13.3,6.24-29.99.16-42.11-6.92l-.13-.08c-3.75-2.36-7.66-4.98-10.65-8.22,3.82,1.52,8.03,2.75,12.19,3.23,14.27,1.52,29.72,1.66,41.95,9.87.58.39.75.64-.01.56ZM907.94,421.09l-.03.16c-2.48,11.25-10.33,20.29-15.29,30.41-.33.7-.68,1.15-.81-.13-2.19-15.84,2.78-31.69,10.84-45.2,1.47-2.5,2.79-5.09,4.39-7.49.41-.53,1.05-1.23,1.22-1.25.08,0,.07.14-.02.4-2.94,8.18-6.16,16.83-7.61,25.24,2.47-7.12,4.86-14.39,7.76-21.38.17-.4.33-.69.34-.07-.29,6.43.53,13-.78,19.31Z"/>
  </g>
</svg>