<?xml version="1.0" encoding="UTF-8"?>
<svg id="Calque_1" data-name="Calque 1" xmlns="http://www.w3.org/2000/svg" viewBox="0 0 1700 1070">
  <defs>
    <style>
      .cls-1 {
        fill: #0a0a0a;
      }

      .cls-2 {
        fill: #874139;
      }
    </style>
  </defs>
  <g>
    <path class="cls-1" d="M839.93,504.19c-3.75-3.53-8.78-5.63-15.05-6.32,4.37-1.69,7.73-4,10.11-6.95,2.37-2.95,3.56-6.26,3.56-9.93,0-4.75-1.79-8.43-5.4-11.04-3.6-2.6-8.82-3.91-15.63-3.91-1.54,0-8.58.04-9.78.11-1.19.09-2.2.16-3.04.24-2.39.23-4.63.34-6.78.34s-4.8-.08-8.16-.24l-5.99-.11c-.15,0-.23.23-.23.68s.08.71.23.71c2.46,0,4.27.2,5.46.63,1.2.42,2.04,1.19,2.53,2.3.5,1.11.75,2.76.75,4.99v53.21c0,2.3-.25,3.99-.75,5.05-.49,1.08-1.35,1.82-2.58,2.24-1.22.42-3.07.64-5.52.64-.23,0-.34.23-.34.69s.12.7.34.7c2.53,0,4.53-.04,5.99-.12l8.28-.11c.77,0,1.51,0,2.21.02,1.26-2,2.51-4.03,3.73-6.05-.22-.83-.32-1.85-.32-3.06v-27.92c1.83-.16,9.83-.24,12.6-.24,5.82,0,10.25,1.76,13.27,5.28,3.02,3.54,4.54,8.21,4.54,14.02s-1.44,9.76-4.32,12.39c-.06.06-.13.12-.19.18-.4.36-.83.69-1.29.99-.53.34-1.09.66-1.68.93-.2.09-.41.18-.62.25-.1.05-.19.08-.28.12-2.02.74-4.39,1.13-7.13,1.13-.95,0-3.34-.2-5.83-.42.19.98.4,1.94.65,2.9,3.12.09,6.02.16,7.02.16,1.98,0,3.88-.16,5.7-.49h0c.5-.09,1-.19,1.5-.31.4-.09.79-.2,1.19-.29.4-.11.8-.24,1.2-.37.29-.1.59-.21.88-.31.83-.29,1.65-.64,2.45-1.03,3.87-1.87,6.9-4.44,9.09-7.71,2.17-3.25,3.27-6.87,3.27-10.84,0-5.22-1.88-9.59-5.63-13.11ZM810.19,497.87l-6.64-.12v-21.83c0-3.07.44-5.08,1.32-6.09.88-1,8.24-1.49,10.69-1.49,3.99,0,7.02,1.19,9.09,3.56,2.07,2.38,3.11,5.75,3.11,10.12,0,4.67-1.16,8.48-3.46,11.43-2.29,2.95-9.58,4.43-14.11,4.43ZM807.33,535.12c-.24-.03-.48-.07-.71-.13-.66,1.07-1.31,2.14-1.97,3.19,1.2.07,3.04.14,5.06.21-.23-1-.46-2.04-.66-3.12-.63-.06-1.21-.11-1.73-.16Z"/>
    <path class="cls-1" d="M908.35,518.15c-.39-.03-.61.06-.69.29-1.23,5.13-10.38,16.78-23.85,16.78,0,0-12.54-.16-13.53-.46-1-.3-1.67-.92-2.02-1.84-.34-.92-.52-2.41-.52-4.48v-52.63c0-2.3.21-4,.63-5.11.42-1.11,1.23-1.87,2.41-2.3,1.19-.42,3.04-.63,5.58-.63.23,0,.34-.23.34-.69s-.12-.69-.34-.69l-5.75.12c-3.37.15-6.21.23-8.51.23-2.14,0-4.9-.08-8.27-.23l-5.86-.12c-.16,0-.23.23-.23.69s.07.69.23.69c2.53,0,4.4.21,5.63.63,1.23.42,2.05,1.17,2.47,2.24.42,1.07.63,2.76.63,5.06v53.2c0,2.3-.21,4.01-.63,5.11-.42,1.11-1.22,1.86-2.41,2.24-1.19.38-3.08.58-5.69.58-.16,0-.23.23-.23.69s.07.69.23.69h52.3c.49,0,.93-.29,1.11-.74,1.82-4.36,6.08-13.2,8.17-18.91,0-.23-.83-.36-1.22-.41Z"/>
    <path class="cls-1" d="M984.37,536.83c-2.05,0-3.98-1.01-5.77-3.04-1.79-2.01-4.03-5.78-6.69-11.26l-3.68-7.62-1.37-2.85h0l-22.31-46.04c-.07-.23-.37-.33-.9-.33s-.89.11-1.04.33l-23.95,55.36c-.08.17-.15.35-.24.54,0,0,0,.03-.02.04h0c-.61,1.36-1.72,3.88-2.98,6.68-1.25,2.81-2.66,5.94-3.84,8.48-.17.35.12.75.51.73,1.97-.08,3.75-.13,5.33-.13,2.14,0,4.63.09,7.54.22,2.59.15,4.56.23,5.94.23.39,0,.57-.23.57-.68s-.18-.69-.57-.69c-3.43,0-6.09-.7-7.99-2.06-1.91-1.38-2.87-3.4-2.87-6.06,0-1.83.5-3.89,1.5-6.17l1.19-2.71v-.02c2.53-4.11,5.42-7.64,9.83-9.33,3.89-1.49,8.76-1.44,14.88.14l7.13,1.85,7.53,15.33c1.31,2.74,1.95,4.68,1.95,5.83s-.5,1.96-1.54,2.46c-1.03.5-2.65.74-4.87.74-.31,0-.45.23-.45.69s.14.68.45.68c1.45,0,3.48-.08,6.06-.23,2.6-.14,4.85-.22,6.75-.22,1.45,0,3.77.09,6.97.22,3.21.15,5.53.23,6.97.23.39,0,.57-.23.57-.68s-.18-.69-.57-.69ZM948.08,508.02c-6.68-1.72-12.08-1.74-16.52-.05-1.83.71-3.43,1.66-4.86,2.81l1.53-3.47,11.27-26.64,12.49,26.64,1.05,2.14c-1.62-.5-3.28-1.01-4.97-1.43Z"/>
  </g>
  <g>
    <path class="cls-2" d="M760.1,566.72c-1.09.31-2.1-.63-1.86-1.73.32-1.5.31-3.29-.02-5.41-.81-6.48-4.14-11.98-6.27-17.96-.4-1.12-.75-2.25-1.05-3.41-.18-.74-.33-1.5-.46-2.26-.04-.24-.07-.47-.12-.72h5.66c.56,0,1.08-.03,1.61-.05,1.37-.08,2.66-.25,3.88-.52.54,1.18,1.1,2.36,1.66,3.55.54,1.14,1.07,2.27,1.57,3.41,3.73,8.35,7.45,21.68-4.59,25.11Z"/>
    <path class="cls-2" d="M950.2,592.72c-.83,1.09-2.33,1.62-3.61,2.05-3.03.94-5.92,2.07-9.17,3.25-4.84,1.65-9.47,4.19-14.13,6.28-.36.07,0-.46.55-1.14,1.27-1.82,3.83-3.36,3.99-5.75-.41-2.19-3.25-2.6-4.82-4.03-1.81-1.32-2.41-3.67-1.51-5.72,2.91-8.36,24.43-17.59,21.14-5.97-2.32,3.92-8.46,2.63-11.58,5.46-1.3.99-1.26,2.93.13,3.88,5.57,3.81,23.11-6.34,19.11,1.57l-.09.12Z"/>
    <path class="cls-2" d="M883.75,588.48c-.08,3.26-4.93,7.13-8.31,8.69-4.27,1.63-11.35-2.05-13.54-3.78-1.42-1.11-.87-2.77.47-4.56,3.53-4.69,7.85-7.77,12.58-5.85,3.08.99,8.29,2.32,8.81,5.4v.11Z"/>
    <path class="cls-2" d="M931.27,570.99c0-.3.56-.69.84-.96,4.34-3.71,6.59-8.7,6.43-14.27-.34-6.12-2.4-9.43-3.19-15.35-2.22-12.07-.96-23.55,5.69-25,1.2-.45,2.02.49,2.22,1.72,1.25,11.73,7.7,21.89,7.81,34,.59,8.93-1.69,15.84-11.44,18.53-2.2.71-4.85,1.23-7.42,1.48-.29.05-.8.05-.93-.1l-.02-.05Z"/>
    <path class="cls-2" d="M749.97,531.81c-.2-4.05.45-8.24,3.23-11.14.93-.99,3.41-2.64,3.86-.47.17,3.66,1.41,7.44,3.01,11.26-.83.15-1.71.25-2.63.3-.48.03-.95.05-1.44.05h-6.02Z"/>
    <path class="cls-2" d="M901.09,556.69c-.25,5.63-9.72,9.74-14.65,12.12-12.54,6.03-45.91,12.15-58.9,10.73-3.88-.43-7.3-1.12-9.97-3.72-4.75-4.62-5-12.43-3.52-20.26.68-3.58,3.89-20.17-1.56-11.01-2.08,4.03-3.54,8.41-5.89,12.23-13.09,19.77-37.02,24.45-63.28,24.94-8.6.17-36.04-2.19-20.06-6.49,16.01-4.3,32.33-2.91,47.89-9.4,9.6-3.95,20.03-8.36,26.66-17.36,2.36-3.24,4.62-6.73,6.83-10.28.66-1.06,1.31-2.13,1.97-3.19,2.16-3.57,4.27-7.13,6.37-10.55,4.53-7.36,9.3-10.53,11.76.33.63,3.1.93,6.5,1.1,10.01.06,1.12.06,2.25.13,3.39.49,8.39-2.86,18.31-.69,22.82,5.59,16.1,52.66,2.41,63.74-2.31,2.53-1.08,12.06-5.7,12.05-2.1v.1Z"/>
  </g>
  <path class="cls-1" d="M776.91,520.51c-.78,5.82-1.15,11.15-1.15,15.97,0,.61-.12,1.05-.35,1.32-.23.27-.68.4-1.37.4h-53.64c-.22,0-.34-.22-.34-.69s.12-.68.34-.68c2.61,0,4.51-.2,5.7-.57,1.18-.39,1.98-1.13,2.4-2.25s.65-2.82.65-5.12v-23.27c-3.06-.37-6.05-1.17-8.8-2.6-2.1-1.14-4.05-2.61-5.29-4.85l.85-.6c3.71,3.39,8.37,5.11,13.24,5.63v-27.52c0-2.31-.23-3.99-.65-5.06-.42-1.08-1.24-1.82-2.46-2.24-1.23-.42-3.11-.63-5.64-.63-.22,0-.34-.24-.34-.7s.12-.68.34-.68h51.56c.78,0,1.15.34,1.15,1.03l.23,14.94c0,.15-.21.26-.63.35-.42.07-.67,0-.75-.24-1.84-8.73-7.15-13.09-15.97-13.09h-6.4c-2.78,0-6.66.49-7.81,1.49-1.15,1-1.72,2.67-1.72,5.05v26.67c.2-.04.42-.09.62-.14,4.34-.93,8.82-2.29,13.41-3.07.97-.19,1.94-.36,2.92-.51,2.5-.42,5.05-.59,7.49-1.23,1.55-.4,2.84-2.23,2.96-2.53h.53v9.53h-.51c-.1-.27-.95-3.12-6.2-3.17-1.45,0-2.86.03-4.27.15-5.31.49-10.37,2.55-15.81,3.6-.37.06-.77.11-1.15.16v23.06c0,2.53.48,4.28,1.44,5.28.95,1,2.66,1.5,5.11,1.5h9.39c.55,0,1.07-.03,1.6-.05,1.37-.08,2.67-.25,3.88-.51,2.48-.54,4.66-1.46,6.55-2.79,3.54-2.48,6.04-6.35,7.49-11.6,0-.14.16-.23.46-.23.24,0,.44.05.65.18.18.12.28.21.28.29Z"/>
</svg>