<?xml version="1.0" encoding="UTF-8"?>
<svg id="Layer_2" data-name="Layer 2" xmlns="http://www.w3.org/2000/svg" viewBox="0 0 448.75 121.33">
  <defs>
    <style>
      .cls-1 {
        fill: #fff;
      }
    </style>
  </defs>
  <g id="Calque_1" data-name="Calque 1">
    <g>
      <path class="cls-1" d="M182.61,53.51c7.26-2.8,12.85-6.65,16.81-11.56,3.94-4.9,5.91-10.41,5.91-16.52,0-7.9-2.98-14.02-8.97-18.36-5.99-4.32-14.66-6.5-25.99-6.5-2.56,0-14.27.06-16.26.18-1.97.15-3.66.26-5.05.41-3.97.37-7.7.57-11.27.57s-7.98-.13-13.57-.39l-9.95-.18c-.24,0-.37.37-.37,1.12s.13,1.17.37,1.17c4.09,0,7.1.33,9.07,1.04,1.99.7,3.39,1.97,4.2,3.83.83,1.84,1.25,4.59,1.25,8.29v88.47c0,3.83-.42,6.63-1.25,8.4-.81,1.79-2.25,3.03-4.28,3.73-2.04.7-5.1,1.06-9.19,1.06-.37,0-.57.39-.57,1.14s.2,1.16.57,1.16c4.2,0,7.52-.06,9.95-.19l13.76-.18c13.85-.1,35.51,1.12,37.17,1.12,3.29,0,6.45-.26,9.48-.82h.02c.83-.15,1.66-.31,2.49-.52.67-.15,1.32-.33,1.97-.49.67-.18,1.34-.39,1.99-.62.49-.16.98-.34,1.47-.52,1.38-.49,2.74-1.06,4.07-1.71,6.43-3.11,11.47-7.38,15.11-12.82,3.62-5.41,5.44-11.42,5.44-18.03,0-8.68-3.13-15.95-9.37-21.79-6.24-5.86-14.59-9.37-25.02-10.51ZM147.13,17c0-5.1.73-8.45,2.2-10.13,1.47-1.66,13.7-2.48,17.77-2.48,6.63,0,11.68,1.97,15.12,5.91,3.44,3.96,5.16,9.56,5.16,16.82,0,7.77-1.92,14.1-5.75,19.01-3.81,4.9-15.93,7.36-23.45,7.36l-11.04-.2V17ZM190.51,110.97c-.1.1-.21.2-.31.29-.67.6-1.38,1.14-2.15,1.64-.88.57-1.81,1.09-2.8,1.55-.33.15-.68.29-1.03.42-.16.08-.31.13-.47.2-3.36,1.24-7.3,1.87-11.86,1.87-1.58,0-22.55-.36-24.22-6.78-.36-1.38-.54-3.08-.54-5.08v-46.42c3.05-.26,16.35-.39,20.95-.39,9.67,0,17.04,2.93,22.07,8.78,5.02,5.88,7.54,13.65,7.54,23.31s-2.39,16.22-7.18,20.6Z"/>
      <path class="cls-1" d="M321.39,87.22c-.64-.05-1.02.1-1.15.48-2.04,8.54-17.26,27.9-39.66,27.9,0,0-20.86-.26-22.5-.76-1.67-.51-2.77-1.53-3.35-3.06-.57-1.53-.86-4.01-.86-7.45V16.81c0-3.82.35-6.65,1.05-8.5.7-1.84,2.04-3.12,4.01-3.82,1.98-.7,5.06-1.05,9.28-1.05.38,0,.57-.39.57-1.15s-.19-1.14-.57-1.14l-9.56.19c-5.61.25-10.32.38-14.15.38-3.56,0-8.15-.13-13.75-.38l-9.75-.19c-.26,0-.38.38-.38,1.14s.12,1.15.38,1.15c4.2,0,7.32.35,9.36,1.05,2.04.7,3.41,1.95,4.11,3.72.7,1.78,1.05,4.59,1.05,8.42v88.46c0,3.83-.35,6.66-1.05,8.5-.7,1.85-2.03,3.1-4.01,3.73-1.98.63-5.13.96-9.46.96-.26,0-.38.38-.38,1.15s.12,1.14.38,1.14h86.96c.81,0,1.54-.48,1.85-1.23,3.02-7.24,10.12-21.95,13.59-31.44,0-.39-1.39-.6-2.02-.68Z"/>
      <path class="cls-1" d="M447.8,118.28c-3.4,0-6.61-1.68-9.59-5.05-2.98-3.34-6.69-9.61-11.12-18.71l-6.12-12.67-2.28-4.74h-.02L381.56.55c-.11-.38-.62-.55-1.5-.55s-1.48.18-1.73.55l-39.82,92.06c-.13.28-.24.59-.41.9,0,.02-.02.05-.03.07v.02c-1.01,2.25-2.87,6.43-4.95,11.09-2.08,4.67-4.43,9.87-6.38,14.11-.28.59.2,1.25.85,1.22,3.27-.13,6.24-.21,8.86-.21,3.55,0,7.7.15,12.54.37,4.3.25,7.59.38,9.87.38.65,0,.94-.38.94-1.12s-.29-1.14-.94-1.14c-5.7,0-10.13-1.16-13.29-3.42-3.18-2.3-4.77-5.65-4.77-10.08,0-3.05.83-6.47,2.49-10.26l1.97-4.51.02-.03c4.19-6.84,8.99-12.7,16.32-15.51,6.47-2.48,14.56-2.4,24.74.23l11.86,3.08,12.53,25.49c2.18,4.56,3.24,7.79,3.24,9.69s-.83,3.26-2.56,4.09c-1.71.83-4.41,1.24-8.1,1.24-.52,0-.75.39-.75,1.14s.23,1.12.75,1.12c2.41,0,5.78-.13,10.08-.38,4.32-.23,8.06-.37,11.22-.37,2.41,0,6.27.15,11.6.37,5.34.25,9.2.38,11.6.38.65,0,.94-.38.94-1.12s-.29-1.14-.94-1.14ZM387.46,70.38c-11.11-2.87-20.08-2.9-27.46-.08-3.05,1.17-5.7,2.77-8.08,4.67l2.54-5.77,18.75-44.3,20.77,44.3,1.74,3.55c-2.69-.83-5.46-1.68-8.26-2.38Z"/>
      <path class="cls-1" d="M102.37,90.67c-.34-.21-.68-.3-1.08-.3-.5,0-.76.14-.76.38-2.42,8.74-6.57,15.17-12.46,19.29-3.14,2.19-6.77,3.74-10.89,4.63-2.03.44-4.18.72-6.46.85-.88.04-1.74.09-2.66.09h-15.61c-4.08,0-6.91-.84-8.5-2.49-1.6-1.67-2.39-4.57-2.39-8.78v-38.34c.64-.09,1.29-.17,1.91-.27,9.04-1.76,17.45-5.17,26.28-5.99,2.34-.2,4.69-.27,7.09-.25,8.74.09,10.14,4.81,10.31,5.27h.85v-15.85h-.88c-.2.5-2.35,3.54-4.93,4.21-4.05,1.06-8.3,1.35-12.45,2.04-1.63.25-3.24.54-4.86.85-7.65,1.3-15.08,3.57-22.3,5.11-.34.09-.69.16-1.03.23V17c0-3.95.95-6.74,2.86-8.4,1.91-1.66,8.37-2.48,12.99-2.48h10.65c14.66,0,23.49,7.25,26.55,21.77.13.4.55.51,1.25.4.69-.14,1.05-.33,1.05-.58l-.38-24.84c0-1.15-.62-1.71-1.91-1.71H8.88c-.37,0-.57.38-.57,1.13s.2,1.16.57,1.16c4.21,0,7.32.35,9.37,1.05,2.03.69,3.4,1.93,4.09,3.72.69,1.78,1.08,4.57,1.08,8.41v45.76c-8.09-.86-15.83-3.72-22.01-9.36l-1.42.99c2.05,3.71,5.31,6.16,8.79,8.06,4.57,2.38,9.54,3.71,14.63,4.32v38.69c0,3.82-.38,6.66-1.08,8.51-.69,1.86-2.03,3.09-3.99,3.74-1.98.62-5.14.95-9.47.95-.37,0-.57.38-.57,1.13s.2,1.15.57,1.15h89.19c1.15,0,1.9-.21,2.28-.66.38-.45.58-1.18.58-2.2,0-8.02.62-16.88,1.91-26.55,0-.13-.17-.28-.47-.48Z"/>
    </g>
  </g>
</svg>